<svg xmlns="http://www.w3.org/2000/svg" viewBox="0 0
335.78 720"><title>Asset 27</title><g id="Layer_2" class="player-icon" data-name="Layer 2"><g id="Layer_1-2" data-name="Layer 1"><path d="M333.86,369c-5.74-22.27-16.39-33.62-16.39-45.53s-5.18-10.08,0-26.48-43.57-69.34-47.35-106.32A170.72,170.72,0,0,1,305,155.22c21.58-16.11,27.46-14.15,28.44-30.4s-1-69.34-3.92-75.37-8-2-8.41-10.22S309.9,16.39,309.9,16.39,303,0,293.65,0c-9.1,0-4.06,5-3.78,5.46-.56-.28-11.35-5.88-10.65-2.94s-9-1.26-9.1,2.24S261,2.1,263.11,6s-11.9.42-9.66,4.77A27,27,0,0,1,255,15.27c-9.67,1-22.14,2.1-32.08,3.08A3.49,3.49,0,0,0,220,20.73C158.33,27.32,55.36,38.81,33.08,45.11c-4.62-1.4-17.51-.42-25.63,2.66C-1.8,51-.68,64.16,1.56,72.57s12.61,5.74,18.35,4.76c5.47-1,12.47-27.46,13-29.56.14,0,.14,0,.28-.14.56.14,2,.28,2-.56,22-5.6,117.4-16.53,185.21-23.81a3.41,3.41,0,0,0,2.94,1.68h.28c2.94-.28,20-1.82,32.78-3.09,1,4.21,2,8.13,3.5,9.67,3.22,2.94-.42,7.71-6.72,13.59s-29.28,37.12-33.9,49.73c-4.77,12.61-9,22.84-16.82,32.22s-12.18,10.93-9.38,1.68-1.68-23.25-5.89-21S184,93.86,173,87.14s-25.77-5.75-31.66-.28S120.5,111,133,129.73c0,0-2.24,12.6,8.68,18.07S153,153,152.3,158.72s-18.35,23-5.46,49,12.89,29.42,23.25,35.72,16.11,22.83,21.3,28.72-1.54,21,10.92,31.52-7,21.57,2.53,28.3c0,0,6.44.42,6.72,2.52s-11.35,25.5-15.13,28.72-9,58.42-.7,64.86-1.54,0,3.78,24-2.94,50-3.78,61.92,1.54,7,1.26,18.07,0,79.29-1.26,86.72-7.7,35.72-17.09,40.9-15.83,52.54-11.35,57.72,27.46,2.24,31-5.74c1.4-3.23,4.2-6.45,7-10.51,1.68,4.34,5,7.7,11.34,8,17.38.7,28.44-.7,37.69,2.25l9.1,2.94s26.34,6.16,26.48-7.71,2.94-10.08,1.54-17.79-4.76-20.31-1-28.44,11.21-7.7,9.11-30,15.13-35.86,8.68-73.27,20.88-53.51,14.43-94.56c0,0,15.55-35.86,8-71.3C330.64,391.28,339.6,391.28,333.86,369ZM240.28,134.21c3.64-2.94,18.49-26.48,27.88-52.26s2-17.37,8-23.81-3.5-12.33,2.52-17.09,1.27-12.33,3.51-10.65,6.72,4.2,9.94,8.41-.42,4.48,2.52,16.39,3.23,10.22,2.25,38.66S280.21,119.08,276,122.58s-12.89,5.74-16.39,9.39-4.9,4.9-10.64,3.78-12.47,4.2-12.61,4.9A10.12,10.12,0,0,1,240.28,134.21Zm21,525.2c-5.46,7-10.08,21.86-21,21s-8.69,8.4-20.31,5.88a59.58,59.58,0,0,1-8.55-2.52,44.67,44.67,0,0,0-.14-7.43s-.56-9.66,14.57-17.37,14.57-20.17,14.29-33.48-1.68-23.82,2.52-40.35-1.26-16.81,2-32.64,5.19-44.13,9-52.81,9.38-23,9.38-23-4.2,69.07-2,73.27-4.76,45.81,5.75,63.88S266.76,652.55,261.29,659.41Z" fill="#696D97"/></g></g></svg>